<svg xmlns="http://www.w3.org/2000/svg" width="64" height="64" viewBox="0 0 64 64">
  <g id="Group_137970" data-name="Group 137970" transform="translate(-285 -737)">
    <rect id="Rectangle_30764" data-name="Rectangle 30764" width="64" height="64" rx="10" transform="translate(285 737)" fill="#fff" opacity="0.1"/>
    <path id="customer-service_3_" data-name="customer-service (3)" d="M40.083,65.6a4.623,4.623,0,0,1-4.415,4.812q-.107,0-.214,0a4.533,4.533,0,0,1-.966-.1,12.452,12.452,0,0,1-8.417,5.515,2.692,2.692,0,1,1-.086-1.955,10.487,10.487,0,1,0-11.093-5.2.636.636,0,0,1,.065.163.968.968,0,0,1-.538,1.221,4.571,4.571,0,0,1-1.774.358q-.108,0-.216,0A4.623,4.623,0,0,1,8.016,65.6c.021-.488.009-.923,0-1.343-.01-.4-.021-.806,0-1.233a4.627,4.627,0,0,1,4.645-4.419,12.426,12.426,0,0,1,22.788,0,4.623,4.623,0,0,1,4.645,4.418c.018.428.007.838,0,1.234C40.074,64.678,40.062,65.113,40.083,65.6Z" transform="translate(292.999 704.862)" fill="#fff"/>
    <path id="customer-service_3_2" data-name="customer-service (3)" d="M30.448,62.694a7.272,7.272,0,0,1-9.137,7.027l-2.942,1.7a.867.867,0,0,1-1.271-.975l.752-2.805a7.27,7.27,0,1,1,12.6-4.946Zm-9.291,0a.867.867,0,0,0-.867-.867h0a.867.867,0,1,0,.868.867Zm2.888,0a.819.819,0,0,0,0-.085.808.808,0,0,0-.013-.084.656.656,0,0,0-.021-.082c-.008-.027-.018-.054-.028-.08a.711.711,0,0,0-.036-.076.834.834,0,0,0-.043-.073.845.845,0,0,0-.051-.069.728.728,0,0,0-.057-.063c-.02-.02-.041-.039-.063-.058s-.045-.035-.069-.05a.833.833,0,0,0-.073-.043c-.025-.013-.051-.025-.077-.036a.768.768,0,0,0-.08-.028.759.759,0,0,0-.166-.034.889.889,0,0,0-.254.012.823.823,0,0,0-.083.021.757.757,0,0,0-.08.028c-.026.011-.052.023-.077.036s-.049.028-.073.043a.842.842,0,0,0-.068.05c-.023.018-.043.038-.064.058a.739.739,0,0,0-.057.063.84.84,0,0,0-.05.069.826.826,0,0,0-.044.073.777.777,0,0,0-.036.076.85.85,0,0,0-.029.08c-.008.027-.015.054-.021.082a.824.824,0,0,0-.013.084c0,.028,0,.057,0,.085s0,.057,0,.086a.838.838,0,0,0,.013.084c.006.028.013.055.021.083a.84.84,0,0,0,.029.08.787.787,0,0,0,.036.077c.013.025.028.049.044.073a.828.828,0,0,0,.05.068.849.849,0,0,0,.057.064c.02.02.041.039.064.057a.74.74,0,0,0,.068.05c.024.016.048.031.073.044a.958.958,0,0,0,.157.065c.027.008.055.015.083.021a.825.825,0,0,0,.169.017.872.872,0,0,0,.613-.254.938.938,0,0,0,.108-.132q.023-.036.043-.073c.013-.025.025-.051.036-.077a.805.805,0,0,0,.028-.08.692.692,0,0,0,.021-.083.822.822,0,0,0,.013-.084.831.831,0,0,0,0-.086Zm2.889,0a.867.867,0,0,0-.867-.867h0a.867.867,0,1,0,.868.867Z" transform="translate(293.87 704.891)" fill="#5f77ff"/>
  </g>
</svg>
