<svg xmlns="http://www.w3.org/2000/svg" width="64" height="64" viewBox="0 0 64 64">
  <g id="Group_137968" data-name="Group 137968" transform="translate(-285 -495)">
    <rect id="Rectangle_30761" data-name="Rectangle 30761" width="64" height="64" rx="10" transform="translate(285 495)" fill="#fff" opacity="0.1"/>
    <g id="care" transform="translate(289 513.936)">
      <circle id="Ellipse_7825" data-name="Ellipse 7825" cx="2.963" cy="2.963" r="2.963" transform="translate(25.037 0.063)" fill="#5f76ff"/>
      <path id="Path_161842" data-name="Path 161842" d="M166.809,134.378H174.9a.809.809,0,0,0,.809-.809v-2.427a4.844,4.844,0,0,0-1.647-3.641,4.844,4.844,0,0,1-6.415,0A4.844,4.844,0,0,0,166,131.141v2.427A.809.809,0,0,0,166.809,134.378Z" transform="translate(-142.855 -121.512)" fill="#5f76ff"/>
      <path id="Path_161843" data-name="Path 161843" d="M26.393,167.968l-2.568-2.541a3.372,3.372,0,0,0-4.263-.4.539.539,0,0,0-.076.827l3.22,3.22a.689.689,0,1,1-.976.972l-3.44-3.47v-7.931a1.645,1.645,0,1,0-3.29,0v7.78a3.776,3.776,0,0,0,1.124,2.688l4.069,4.016v2.211a.809.809,0,0,0,.809.809h5.379a.809.809,0,0,0,.809-.809v-5.457A2.7,2.7,0,0,0,26.393,167.968Z" transform="translate(0 -149.42)" fill="#fff"/>
      <path id="Path_161844" data-name="Path 161844" d="M271.8,167.968l2.568-2.541a3.372,3.372,0,0,1,4.263-.4.539.539,0,0,1,.076.827l-3.22,3.22a.689.689,0,1,0,.976.972l3.439-3.47v-7.931a1.645,1.645,0,1,1,3.291,0v7.78a3.776,3.776,0,0,1-1.124,2.688L278,173.129v2.211a.809.809,0,0,1-.809.809h-5.38a.809.809,0,0,1-.809-.809v-5.457A2.7,2.7,0,0,1,271.8,167.968Z" transform="translate(-242.191 -149.42)" fill="#fff"/>
    </g>
  </g>
</svg>
